# xmcd
#
# Track frame offsets:
#	183
#	13955
#	25703
#	37470
#	45893
#	57245
#	69080
#	79170
#	93795
#	106553
#	119328
#	139508
#	149938
#	160400
#	171380
#	187500
#	198043
#	212520
#	225453
#	236990
#	249455
#	262853
#	279743
#	291893
#
# Disc length: 4052 seconds
#
# Revision: 1
# Processed by: cddbd v1.5.2PL0 Copyright (c) Steve Scherf et al.
# Submitted via: audiograbber 1.83.01
#
DISCID=4b0fd218
DTITLE=Boxcar Willie - The Boxcar Willie Collection
DYEAR=1986
DGENRE=Country
TTITLE0=Lost Highway
TTITLE1=We Made Memories
TTITLE2=S.U.C.K.E.R.
TTITLE3=Ain't No Record
TTITLE4=Tomorrow The Sun's Gonna Shine
TTITLE5=Sioux City Sue
TTITLE6=Living It Up In Washington D.C.
TTITLE7=Blue, Blue Days
TTITLE8=Hee Haw Honey
TTITLE9=Booze, Broads And Bad Times
TTITLE10=I'm So Lonesome I Could Cry
TTITLE11=Your Tip's On The Table, Mable
TTITLE12=Tennessee Rain
TTITLE13=Atomic Bum
TTITLE14=Rebel Soldier
TTITLE15=Cattle Call
TTITLE16=I'm Mad
TTITLE17=Depressin' Recession Blues
TTITLE18=I Was Kind Of In The Neighborood
TTITLE19=Steamline Cannonball
TTITLE20=Everytime Yor Love Touched Me
TTITLE21=Mansion On The Hill
TTITLE22=The Old Iron Trail
TTITLE23=Waltz Across Texas
EXTD=
EXTT0=
EXTT1=
EXTT2=
EXTT3=
EXTT4=
EXTT5=
EXTT6=
EXTT7=
EXTT8=
EXTT9=
EXTT10=
EXTT11=
EXTT12=
EXTT13=
EXTT14=
EXTT15=
EXTT16=
EXTT17=
EXTT18=
EXTT19=
EXTT20=
EXTT21=
EXTT22=
EXTT23=
PLAYORDER=
